<svg xmlns="http://www.w3.org/2000/svg" width="144.479" height="50.414" viewBox="0 0 144.479 50.414"><g transform="translate(-24.5 -14.168)"><g transform="translate(24.5 14.168)"><path d="M24.5,87.669H36.053l5.514-16.21h-11.6Z" transform="translate(-24.5 -50.262)" fill="#007BC3"></path><path d="M46.657,28.09h4.968l4.029-11.774H31.872L27.921,28.051H35.04l-2.475,7.344H44.173Z" transform="translate(-26.655 -15.521)" fill="#007BC3"></path><path d="M108.8,87.669h10.757s3.128-9.231,5.442-16.21H114.2Z" transform="translate(-77.609 -50.262)" fill="#007BC3"></path><path d="M74,87.669H84.921l5.4-16.21H79.46Z" transform="translate(-55.688 -50.262)" fill="#007BC3"></path><path d="M115.039,30.867c1.1-3.472-.55-4.957-1.942-5.582a5.383,5.383,0,0,0-2.211-.442h-5.86l2.738-8.527H96.381L89.958,35.395h23.607C114.162,33.587,114.681,32,115.039,30.867Z" transform="translate(-65.74 -15.521)" fill="#007BC3"></path><path d="M174.828,52.379l3.09-9.1h-11.5c-5.085,0-6.571,5.32-6.571,5.32l-1.312,3.785h16.293Z" transform="translate(-108.944 -32.506)" fill="#007BC3"></path><path d="M142.1,87.669h11.5l5.388-16.21H147.722Z" transform="translate(-98.59 -50.262)" fill="#007BC3"></path><path d="M190.732,87.669h11.343l5.475-16.21h-11.3Z" transform="translate(-129.229 -50.262)" fill="#007BC3"></path><path d="M221.244,43.275H209.979l-3.1,9.1h11.292Z" transform="translate(-139.4 -32.506)" fill="#007BC3"></path><path d="M231.04,14.168H219.775l-3.1,9.1h11.292Z" transform="translate(-145.572 -14.168)" fill="#007BC3"></path><path d="M226,87.669h11.383l5.316-16.21H231.444Z" transform="translate(-151.448 -50.262)" fill="#007BC3"></path><path d="M257.071,34.041l3.09-9.1H255.9l.743-1.956h5.437l2.934-8.813H253.277c-5.163,0-6.884,6.545-6.884,6.545l-4.477,13.329h15.155Z" transform="translate(-161.476 -14.168)" fill="#007BC3"></path><path d="M282.56,87.669h11.754l5.557-16.21H288.039Z" transform="translate(-187.082 -50.262)" fill="#007BC3"></path><path d="M314.974,35.528l-.254-9.182h-8.684l3.129-9.818H298.448l-3.286,9.9h-4.655l-3.031,9.1h27.5Z" transform="translate(-190.179 -15.654)" fill="#007BC3"></path><path d="M383.921,43.381H371.689l-6.019,9.065h12.141Z" transform="translate(-239.443 -32.573)" fill="#007BC3"></path><path d="M322.931,83.562,312.057,100.28h11.656l19.428-28.821H321.307Z" transform="translate(-205.665 -50.262)" fill="#007BC3"></path></g><g transform="translate(123.52 59.355)"><path d="M297.424,138.9a2.587,2.587,0,0,1-2.63,2.629,2.614,2.614,0,1,1,.017-5.226A2.577,2.577,0,0,1,297.424,138.9Zm-4.72,0a2.093,2.093,0,0,0,2.107,2.156,2.056,2.056,0,0,0,2.042-2.14,2.076,2.076,0,1,0-4.149-.016Zm1.617,1.437h-.506v-2.728a5.262,5.262,0,0,1,.947-.081,1.271,1.271,0,0,1,.849.212.706.706,0,0,1,.278.588.7.7,0,0,1-.522.637V139a.844.844,0,0,1,.441.67,1.912,1.912,0,0,0,.212.67H295.5a2.119,2.119,0,0,1-.229-.7c-.066-.31-.245-.441-.621-.441h-.327Zm0-1.535h.343c.359,0,.7-.114.7-.425,0-.261-.18-.457-.654-.457a1.922,1.922,0,0,0-.392.033Z" transform="translate(-292.132 -136.302)" fill="#007BC3"></path></g><g transform="translate(24.611 54.91)"><path d="M24.8,129.052v-.026a4.756,4.756,0,0,1,4.963-4.739,5.144,5.144,0,0,1,3.766,1.427L32.443,126.9a3.916,3.916,0,0,0-2.694-1.139A3.145,3.145,0,0,0,26.573,129v.026a3.168,3.168,0,0,0,3.176,3.261,3.857,3.857,0,0,0,2.763-1.192l1.086,1.047a5.078,5.078,0,0,1-3.9,1.624A4.726,4.726,0,0,1,24.8,129.052Z" transform="translate(-24.8 -124.286)" fill="#007BC3"></path><path d="M54.632,124.533H56.2l4.234,9.231H58.646l-.976-2.213H53.12l-.99,2.213H50.4Zm2.42,5.591-1.663-3.666-1.65,3.666Z" transform="translate(-40.927 -124.442)" fill="#007BC3"></path><path d="M81.235,124.71h4.289a3.994,3.994,0,0,1,2.777.916,2.7,2.7,0,0,1,.8,1.977v.026a2.782,2.782,0,0,1-2.3,2.776l2.6,3.47H87.407l-2.364-3.194H82.926v3.194H81.235Zm4.166,4.543c1.209,0,1.979-.6,1.979-1.532V127.7c0-.982-.742-1.519-1.993-1.519H82.926v3.077Z" transform="translate(-60.355 -124.553)" fill="#007BC3"></path><path d="M119.985,124.71h4.289a4,4,0,0,1,2.777.916,2.7,2.7,0,0,1,.8,1.977v.026a2.782,2.782,0,0,1-2.3,2.776l2.6,3.47h-1.993l-2.365-3.194h-2.117v3.194h-1.691Zm4.165,4.543c1.21,0,1.98-.6,1.98-1.532V127.7c0-.982-.743-1.519-1.993-1.519h-2.461v3.077Z" transform="translate(-84.768 -124.553)" fill="#007BC3"></path><path d="M148.333,124.71h7.135v1.44h-5.444v2.383h4.825v1.44h-4.825v2.461h5.512v1.44h-7.2Z" transform="translate(-102.628 -124.553)" fill="#007BC3"></path><path d="M173.968,124.71h1.567l5.155,6.337V124.71h1.663v9.165h-1.416l-5.306-6.52v6.52h-1.663Z" transform="translate(-118.778 -124.553)" fill="#007BC3"></path><path d="M203.77,126.2h-3.052V124.71h7.808V126.2h-3.052v7.673h-1.7Z" transform="translate(-135.631 -124.553)" fill="#007BC3"></path><path d="M224.569,124.533h1.567l4.234,9.231h-1.787l-.976-2.213h-4.551l-.989,2.213h-1.732Zm2.419,5.591-1.663-3.666-1.65,3.666Z" transform="translate(-147.99 -124.442)" fill="#007BC3"></path><path d="M251.172,124.71h1.69v7.7h5.059v1.466h-6.749Z" transform="translate(-167.418 -124.553)" fill="#007BC3"></path></g></g></svg>
